# AST/ASF file generated using VICON BodyLanguage
# -----------------------------------------------
:version 1.10
:name VICON
:units
  mass 1.0
  length 0.45
  angle deg
:documentation
   .ast/.asf automatically generated from VICON data using
   VICON BodyBuilder and BodyLanguage model FoxedUp or BRILLIANT.MOD
:root
   order TX TY TZ RX RY RZ
   axis XYZ
   position 0 0 0  
   orientation 0 0 0 
:bonedata
  begin
     id 1 
     name lhipjoint
     direction 0.612567 -0.751349 0.245431 
     length 2.42285 
     axis 0 0 0  XYZ
  end
  begin
     id 2 
     name lfemur
     direction 0.34202 -0.939693 0  
     length 7.11304  
     axis 0 0 20  XYZ
    dof rx ry rz
    limits (-160.0 20.0)
           (-70.0 70.0)
           (-60.0 70.0)
  end
  begin
     id 3 
     name ltibia
     direction 0.34202 -0.939693 0   
     length 7.84529   
     axis 0 0 20   XYZ
    dof rx
    limits (-10.0 170.0)
  end
  begin
     id 4 
     name lfoot
     direction 0.0779239 -0.214094 0.9737   
     length 1.97176   
     axis -90 7.62852e-016 20   XYZ
    dof rx rz
    limits (-45.0 90.0)
           (-70.0 20.0)
  end
  begin
     id 5 
     name ltoes
     direction 1.53565e-011 -4.21709e-011 1   
     length 0.993197   
     axis -90 7.62852e-016 20   XYZ
    dof rx
    limits (-90.0 20.0)
  end
  begin
     id 6 
     name rhipjoint
     direction -0.665722 -0.709315 0.231701   
     length 2.56642  
     axis 0 0 0  XYZ 
  end
  begin
     id 7 
     name rfemur
     direction -0.34202 -0.939693 0   
     length 7.32108   
     axis 0 0 -20   XYZ
    dof rx ry rz
    limits (-160.0 20.0)
           (-70.0 70.0)
           (-70.0 60.0)
  end
  begin
     id 8 
     name rtibia
     direction -0.34202 -0.939693 0   
     length 7.81254   
     axis 0 0 -20   XYZ
    dof rx
    limits (-10.0 170.0)
 end
 begin
     id 9 
     name rfoot
     direction -0.0832806 -0.228812 0.969902   
     length 2.08278  
     axis -90 -7.62852e-016 -20   XYZ
    dof rx rz
    limits (-45.0 90.0)
           (-20.0 70.0)
  end
  begin
     id 10 
     name rtoes
     direction -1.53589e-011 -4.22086e-011 1   
     length 1.04609   
     axis -90 -7.62852e-016 -20   XYZ
    dof rx
    limits (-90.0 20.0)
  end
  begin
     id 11 
     name lowerback
     direction -0.00506013 0.988403 -0.151766   
     length 2.01978   
     axis 0 0 0   XYZ
    dof rx ry rz
    limits (-20.0 45.0)
           (-30.0 30.0)
           (-30.0 30.0)
  end
  begin
     id 12 
     name upperback
     direction -0.00836389 0.99968 0.0238859   
     length 2.01276   
     axis 0 0 0   XYZ
    dof rx ry rz
    limits (-20.0 45.0)
           (-30.0 30.0)
           (-30.0 30.0)
  end
  begin
     id 13 
     name thorax
     direction -0.00684136 0.995386 0.0957043   
     length 2.07303   
     axis 0 0 0   XYZ
    dof rx ry rz
    limits (-20.0 45.0)
           (-30.0 30.0)
           (-30.0 30.0)
  end
  begin
     id 14 
     name lowerneck
     direction -0.0161045 0.999661 0.0204485   
     length 1.91243   
     axis 0 0 0   XYZ
    dof rx ry rz
    limits (-20.0 45.0)
           (-30.0 30.0)
           (-30.0 30.0)
  end
  begin
     id 15 
     name upperneck
     direction 0.0553583 0.990946 -0.122319   
     length 1.91574   
     axis 0 0 0   XYZ
    dof rx ry rz
    limits (-20.0 45.0)
           (-30.0 30.0)
           (-30.0 30.0)
  end
  begin
     id 16
     name head
     direction 0.0180273 0.998839 -0.0446756  
     length 1.92693  
     axis 0 0 0   XYZ
    dof rx ry rz
    limits (-20.0 45.0)
           (-30.0 30.0)
           (-30.0 30.0)
  end
  begin
     id 17 
     name lclavicle
     direction 0.945646 0.319323 -0.0615358  
     length 4.0076  
     axis 0 0 0   XYZ
    dof ry rz
    limits (-20.0 10.0)
           (0.0 20.0)
  end
  begin
     id 18 
     name lhumerus
     direction 1 -4.48967e-011 -2.79996e-027   
     length 5.64147   
     axis 180 -30 -90   XYZ
    dof rx ry rz
    limits (-60.0 90.0)
           (-90.0 90.0)
           (-90.0 90.0)
  end
  begin
     id 19
     name lradius
     direction 1 -4.48976e-011 -9.5122e-027   
     length 2.86444   
     axis 180 -30 -90   XYZ
    dof rx
    limits (-10.0 170.0)
  end
  begin
     id 20
     name lwrist
     direction 1 -4.48983e-011 -1.24047e-026   
     length 1.43222   
     axis 9.05591e-015 90 90   XYZ
    dof ry
    limits (-180.0 0.0)
 end
  begin
     id 21 
     name lhand
     direction 1 -4.4892e-011 -2.48094e-026   
     length 0.722123   
     axis 1.58305e-014 90 90   XYZ
    dof rx rz
    limits (-90.0 90.0)
           (-45.0 45.0)
  end
  begin
     id 22 
     name lfingers
     direction 1 -4.48895e-011 -4.96187e-026   
     length 0.582194   
     axis 3.1661e-014 90 90   XYZ
    dof rx
    limits (0.0 90.0)
  end
  begin
     id 23
     name lthumb
     direction 0.707107 -6.34961e-011 0.707107   
     length 0.835918   
     axis -90 45 2.85299e-015   XYZ
    dof rx rz
    limits (-45.0 45.0)
           (-45.0 45.0)
  end
  begin
     id 24 
     name rclavicle
     direction -0.932635 0.324218 -0.15835   
     length 3.65819  
     axis 0 0 0   XYZ 
    dof ry rz
    limits (-10.0 20.0)
           (-20.0 0.0)
  end
  begin
     id 25 
     name rhumerus
     direction -1 -4.48965e-011 -4.02296e-027  
     length 5.44729   
     axis 180 30 90   XYZ
    dof rx ry rz
    limits (-90.0 60.0)
           (-90.0 90.0)
           (-90.0 90.0)
  end
  begin
     id 26 
     name rradius
     direction -1 -4.48957e-011 -8.81087e-027   
     length 3.08821   
     axis 180 30 90   XYZ
    dof rx
    limits (-10.0 170.0)
  end
  begin
     id 27 
     name rwrist
     direction -1 -4.49015e-011 -1.24047e-026   
     length 1.5441   
     axis 9.05591e-015 -90 -90   XYZ
    dof ry
    limits (-180.0 0.0)
  end
  begin
     id 28
     name rhand
     direction -1 -4.4891e-011 -2.48094e-026   
     length 0.821049   
     axis 1.58305e-014 -90 -90   XYZ
    dof rx rz
    limits (-90.0 90.0)
           (-45.0 45.0)
  end
  begin
     id 29
     name rfingers
     direction -1 -4.48985e-011 -4.96187e-026   
     length 0.661951   
     axis 3.1661e-014 -90 -90   XYZ
    dof rx
    limits (0.0 90.0)
  end
  begin
     id 30
     name rthumb
     direction -0.707107 -6.34906e-011 0.707107   
     length 0.950433   
     axis -90 -45 -2.85299e-015   XYZ
    dof rx rz
    limits (-45.0 45.0)
           (-45.0 45.0)
  end
:hierarchy
  begin
    root lhipjoint rhipjoint lowerback
    lhipjoint lfemur
    lfemur ltibia
    ltibia lfoot
    lfoot ltoes
    rhipjoint rfemur
    rfemur rtibia
    rtibia rfoot
    rfoot rtoes
    lowerback upperback
    upperback thorax
    thorax lowerneck lclavicle rclavicle
    lowerneck upperneck
    upperneck head
    lclavicle lhumerus
    lhumerus lradius
    lradius lwrist
    lwrist lhand lthumb
    lhand lfingers
    rclavicle rhumerus
    rhumerus rradius
    rradius rwrist
    rwrist rhand rthumb
    rhand rfingers
  end

#!OML:ASF F:\VICON\USERDATA\INSTALL\rory3\rory3.ASF
:FULLY-SPECIFIED
:DEGREES
269
root 3.04751 17.6885 0.511549 -67.2953 88.7616 -66.2628
lowerback 6.4889 -0.366501 3.14295
upperback -2.52185 -0.266767 -1.11033
thorax -6.30243 -0.280942 -2.89765
lowerneck -5.74258 -5.45902 -5.08977
upperneck 10.594 -7.73795 8.58851
head 4.64676 -3.49975 3.01343
rclavicle -2.45996e-015 -1.19271e-015
rhumerus -28.6472 35.0647 -67.4095
rradius 138.404
rwrist -59.7515
rhand 21.352 18.6698
rfingers 7.12502
rthumb 45.7924 -4.5107
lclavicle -2.45996e-015 -1.19271e-015
lhumerus -27.5833 -36.2949 76.9987
lradius 134.791
lwrist 95.7865
lhand 19.5327 25.6321
lfingers 7.12502
lthumb 44.0995 49.4778
rfemur 1.24502 0.234179 20.4461
rtibia 13.5429
rfoot -15.1649 -1.10265
rtoes -7.58713
lfemur 2.63115 0.922362 -14.4776
ltibia 9.3391
lfoot -11.3769 0.703339
ltoes -6.46754
270
root 3.04802 17.6871 0.511435 -68.142 88.6984 -67.1218
lowerback 6.43843 -0.370493 3.22425
upperback -2.52486 -0.265732 -1.10122
thorax -6.27731 -0.283087 -2.93402
lowerneck -5.73825 -5.45312 -5.10742
upperneck 10.6331 -7.73313 8.61281
head 4.65922 -3.4957 3.02407
rclavicle -3.75206e-015 2.78299e-015
rhumerus -28.5622 35.0265 -67.4248
rradius 138.3
rwrist -59.7354
rhand 21.2977 18.7127
rfingers 7.12502
rthumb 45.742 -4.48849
lclavicle -3.75206e-015 2.78299e-015
lhumerus -27.6273 -36.3305 77.0161
lradius 134.808
lwrist 95.7707
lhand 19.5044 25.6016
lfingers 7.12502
lthumb 44.0731 49.4572
rfemur 1.26363 0.238406 20.5188
rtibia 13.489
rfoot -15.0851 -1.11448
rtoes -8.03414
lfemur 2.57397 0.92984 -14.4033
ltibia 9.43052
lfoot -11.4234 0.680212
ltoes -6.27687
271
root 3.04849 17.6859 0.510068 -68.3836 88.6647 -67.3572
lowerback 6.42148 -0.373768 3.27697
upperback -2.52823 -0.26595 -1.10282
thorax -6.2717 -0.285296 -2.96542
lowerneck -5.69801 -5.45434 -5.05392
upperneck 10.6083 -7.73296 8.55484
head 4.64052 -3.49838 2.9987
rclavicle -3.03147e-015 -1.31198e-014
rhumerus -28.6303 34.9787 -67.4956
rradius 138.307
rwrist -59.7278
rhand 21.3754 18.7468
rfingers 7.12502
rthumb 45.8141 -4.42478
lclavicle -3.03147e-015 -1.31198e-014
lhumerus -27.701 -36.3496 77.0546
lradius 134.802
lwrist 95.7359
lhand 19.5742 25.5819
lfingers 7.12502
lthumb 44.1382 49.413
rfemur 1.29902 0.244809 20.5473
rtibia 13.4496
rfoot -15.0341 -1.12212
rtoes -8.42255
lfemur 2.55167 0.936997 -14.3688
ltibia 9.50744
lfoot -11.5075 0.642346
ltoes -6.23766
272
root 3.04909 17.6868 0.509799 -67.2021 88.6875 -66.166
lowerback 6.39165 -0.36887 3.25214
upperback -2.52105 -0.263373 -1.11604
thorax -6.24664 -0.282721 -2.96551
lowerneck -5.62668 -5.45689 -5.01896
upperneck 10.5286 -7.73232 8.51367
head 4.60112 -3.50276 2.98268
rclavicle -2.5842e-015 -4.37326e-015
rhumerus -28.7593 34.9553 -67.5665
rradius 138.383
rwrist -59.6932
rhand 21.389 18.7728
rfingers 7.12502
rthumb 45.8267 -4.39354
lclavicle -2.5842e-015 -4.37326e-015
lhumerus -27.7044 -36.333 77.1036
lradius 134.765
lwrist 95.7487
lhand 19.7111 25.5301
lfingers 7.12502
lthumb 44.2658 49.3131
rfemur 1.31689 0.272373 20.5171
rtibia 13.4288
rfoot -15.0496 -1.13141
rtoes -8.7839
lfemur 2.56248 0.953545 -14.4058
ltibia 9.54246
lfoot -11.5697 0.612193
ltoes -6.03201
273
root 3.05019 17.6867 0.509501 -65.4396 88.7056 -64.3931
lowerback 6.36591 -0.358941 3.24328
upperback -2.51748 -0.253133 -1.14156
thorax -6.22742 -0.27743 -2.98844
lowerneck -5.57624 -5.47764 -5.00841
upperneck 10.4981 -7.75947 8.50063
head 4.58431 -3.51832 2.97656
rclavicle -2.88238e-015 3.97569e-016
rhumerus -28.8654 34.9395 -67.6802
rradius 138.4
rwrist -59.651
rhand 21.468 18.8042
rfingers 7.12502
rthumb 45.9001 -4.33181
lclavicle -2.88238e-015 3.97569e-016
lhumerus -27.7144 -36.2871 77.1563
lradius 134.786
lwrist 95.7282
lhand 19.7575 25.5763
lfingers 7.12502
lthumb 44.3091 49.3429
rfemur 1.32568 0.258624 20.4773
rtibia 13.4262
rfoot -15.0554 -1.07035
rtoes -8.5937
lfemur 2.58412 0.982865 -14.4458
ltibia 9.53838
lfoot -11.5851 0.596779
ltoes -6.01583
274
root 3.0514 17.6863 0.508037 -66.0246 88.6409 -64.9642
lowerback 6.3632 -0.361485 3.34802
upperback -2.51355 -0.247399 -1.14096
thorax -6.22228 -0.278682 -3.0476
lowerneck -5.56999 -5.49041 -5.01449
upperneck 10.4688 -7.77643 8.51534
head 4.57635 -3.52695 2.98122
rclavicle 1.19271e-015 -3.57812e-015
rhumerus -28.922 34.9641 -67.7765
rradius 138.387
rwrist -59.6095
rhand 21.4345 18.8294
rfingers 7.12502
rthumb 45.869 -4.31954
lclavicle 1.19271e-015 -3.57812e-015
lhumerus -27.6642 -36.2302 77.156
lradius 134.791
lwrist 95.7476
lhand 19.7488 25.7004
lfingers 7.12502
lthumb 44.301 49.4701
rfemur 1.34234 0.242045 20.5357
rtibia 13.4248
rfoot -15.014 -1.04194
rtoes -8.31523
lfemur 2.61905 0.996189 -14.3772
ltibia 9.5184
lfoot -11.5563 0.572668
ltoes -5.91633
275
root 3.05184 17.6864 0.508059 -65.4307 88.6335 -64.3793
lowerback 6.35708 -0.349904 3.35854
upperback -2.52974 -0.231355 -1.14935
thorax -6.2348 -0.271805 -3.06429
lowerneck -5.54308 -5.50449 -4.99458
upperneck 10.4263 -7.79438 8.50413
head 4.5589 -3.53728 2.97425
rclavicle 3.90115e-015 -6.36111e-015
rhumerus -29.0218 34.9963 -67.8704
rradius 138.377
rwrist -59.5589
rhand 21.449 18.864
rfingers 7.12502
rthumb 45.8825 -4.27927
lclavicle 3.90115e-015 -6.36111e-015
lhumerus -27.6736 -36.2154 77.2283
lradius 134.756
lwrist 95.7008
lhand 19.7969 25.6884
lfingers 7.12502
lthumb 44.3458 49.4411
rfemur 1.32107 0.274068 20.5361
rtibia 13.4465
rfoot -14.9796 -1.06272
rtoes -8.30254
lfemur 2.63539 1.01318 -14.3776
ltibia 9.47786
lfoot -11.5472 0.585182
ltoes -6.31656
276
root 3.05282 17.6874 0.508301 -65.4874 88.5978 -64.4556
lowerback 6.31549 -0.34557 3.41921
upperback -2.54004 -0.221844 -1.15858
thorax -6.22172 -0.269603 -3.10929
lowerneck -5.54283 -5.50696 -4.98963
upperneck 10.4427 -7.8001 8.51399
head 4.56449 -3.53883 2.97602
rclavicle 7.20594e-016 7.55382e-015
rhumerus -29.1029 35.0168 -67.975
rradius 138.369
rwrist -59.4983
rhand 21.4175 18.869
rfingers 7.12502
rthumb 45.8532 -4.2864
lclavicle 7.20594e-016 7.55382e-015
lhumerus -27.7415 -36.1723 77.298
lradius 134.704
lwrist 95.6196
lhand 19.9173 25.5642
lfingers 7.12502
lthumb 44.4581 49.2741
rfemur 1.30738 0.309454 20.5811
rtibia 13.4489
rfoot -15.0172 -1.0939
rtoes -8.0933
lfemur 2.63053 1.02841 -14.3409
ltibia 9.45852
lfoot -11.5397 0.612893
ltoes -6.57796
277
root 3.05333 17.6877 0.509127 -63.4306 88.6457 -62.3955
lowerback 6.31019 -0.343629 3.34637
upperback -2.55039 -0.226569 -1.17534
thorax -6.22945 -0.269604 -3.08525
lowerneck -5.5348 -5.4974 -5.00306
upperneck 10.4517 -7.78746 8.52194
head 4.5658 -3.53267 2.98169
rclavicle -2.83268e-015 -1.59028e-015
rhumerus -29.1841 35.0383 -68.0527
rradius 138.341
rwrist -59.4573
rhand 21.4556 18.9435
rfingers 7.12502
rthumb 45.8886 -4.1973
lclavicle -2.83268e-015 -1.59028e-015
lhumerus -27.8193 -36.1165 77.3747
lradius 134.679
lwrist 95.5835
lhand 19.9688 25.5181
lfingers 7.12502
lthumb 44.506 49.2097
rfemur 1.30766 0.289621 20.5103
rtibia 13.45
rfoot -15.0386 -1.04556
rtoes -7.69374
lfemur 2.63094 1.05269 -14.4087
ltibia 9.45699
lfoot -11.5462 0.63673
ltoes -6.86664
278
root 3.05436 17.6876 0.509065 -62.8819 88.676 -61.8186
lowerback 6.32319 -0.354238 3.30016
upperback -2.54858 -0.244005 -1.16714
thorax -6.23587 -0.276265 -3.04853
lowerneck -5.58445 -5.48523 -5.04485
upperneck 10.5102 -7.76995 8.52627
head 4.59253 -3.52304 2.98933
rclavicle -2.48481e-015 3.97569e-015
rhumerus -29.2307 35.0531 -68.0547
rradius 138.331
rwrist -59.4724
rhand 21.4856 18.9008
rfingers 7.12502
rthumb 45.9164 -4.22844
lclavicle -2.48481e-015 3.97569e-015
lhumerus -27.9042 -36.0745 77.4652
lradius 134.687
lwrist 95.5629
lhand 19.8594 25.5088
lfingers 7.12502
lthumb 44.4041 49.2393
rfemur 1.33484 0.300273 20.4708
rtibia 13.4628
rfoot -15.0917 -0.989132
rtoes -7.47031
lfemur 2.66936 1.04905 -14.4484
ltibia 9.43571
lfoot -11.5396 0.684095
ltoes -7.12511
